/* XPM */
static char *_65701a7408846e396196536fa07ede9[] = {
/* columns rows colors chars-per-pixel */
"64 64 174 2 ",
"   c #08010F",
".  c #07010F",
"X  c #0B0513",
"o  c #0F0816",
"O  c #100917",
"+  c #1D0916",
"@  c #120C1A",
"#  c #1D0D1A",
"$  c #1B0714",
"%  c #17101E",
"&  c #1C111E",
"*  c #1C1623",
"=  c #1E1825",
"-  c #1E1C29",
";  c #231D2A",
":  c #26212D",
">  c #282E3A",
",  c #25323F",
"<  c #36343F",
"1  c #233D4A",
"2  c #2B3B47",
"3  c #393A45",
"4  c #433F4A",
"5  c #423C47",
"6  c #23424F",
"7  c #2F424E",
"8  c #37424E",
"9  c #234552",
"0  c #234956",
"q  c #294B57",
"w  c #224D59",
"e  c #294956",
"r  c #314651",
"t  c #394955",
"y  c #22515D",
"u  c #2A525E",
"i  c #37525E",
"p  c #225461",
"a  c #235A66",
"s  c #235D6A",
"d  c #2B5763",
"f  c #3A5965",
"g  c #23616E",
"h  c #2D606C",
"j  c #3D626D",
"k  c #236572",
"l  c #246976",
"z  c #246D7A",
"x  c #2E6975",
"c  c #386A75",
"v  c #24727E",
"b  c #31737F",
"n  c #45424C",
"m  c #49444E",
"M  c #4C4A54",
"N  c #434E59",
"B  c #464852",
"V  c #514C56",
"C  c #534F58",
"Z  c #48535D",
"A  c #55525C",
"S  c #59555E",
"D  c #4B5B65",
"F  c #5C5761",
"G  c #5D5A64",
"H  c #545761",
"J  c #615C66",
"K  c #57626C",
"L  c #426973",
"P  c #566973",
"I  c #44717C",
"U  c #5C747D",
"Y  c #65626A",
"T  c #69656E",
"R  c #6D6A73",
"E  c #656A73",
"W  c #716D75",
"Q  c #746F78",
"!  c #6D737C",
"~  c #74727A",
"^  c #7A767E",
"/  c #257582",
"(  c #257C89",
")  c #257985",
"_  c #327884",
"`  c #4A7F89",
"'  c #477882",
"]  c #627D86",
"[  c #7D7B82",
"{  c #747B83",
"}  c #827F86",
"|  c #34828E",
" . c #268995",
".. c #358994",
"X. c #27919E",
"o. c #26838F",
"O. c #279AA3",
"+. c #389CA7",
"@. c #28A4AB",
"#. c #28A5AD",
"$. c #3FA9AF",
"%. c #3DA5AE",
"&. c #3EABB2",
"*. c #29B2BE",
"=. c #4E8B95",
"-. c #4F8791",
";. c #68848C",
":. c #7B828A",
">. c #6C8A93",
",. c #73929A",
"<. c #579CA5",
"1. c #7C9DA4",
"2. c #759BA2",
"3. c #5DA4AA",
"4. c #55A3AD",
"5. c #60A5AB",
"6. c #7EA4AB",
"7. c #3DB8C3",
"8. c #63BDC6",
"9. c #2BC6CB",
"0. c #2BC9CE",
"q. c #3FC2C7",
"w. c #2BCDD3",
"e. c #3FCAD4",
"r. c #2CDADE",
"t. c #2CDCE0",
"y. c #2EE6E9",
"u. c #41C3C8",
"i. c #40C2C7",
"p. c #41D3D7",
"a. c #6AC4C9",
"s. c #66C3C7",
"d. c #6AD4D7",
"f. c #86838A",
"g. c #89868D",
"h. c #81888F",
"j. c #8E8B92",
"k. c #808991",
"l. c #98969C",
"z. c #8C949B",
"x. c #809FA5",
"c. c #9D9BA1",
"v. c #969EA4",
"b. c #A19EA4",
"n. c #9CA4A9",
"m. c #98A2A7",
"M. c #A3A1A6",
"N. c #A5A5AA",
"B. c #ACA9AE",
"V. c #AEACB1",
"C. c #AAB4B9",
"Z. c #B8B6BA",
"A. c #92BCC3",
"S. c #9DC9CC",
"D. c #96C6CB",
"F. c #A3CACD",
"G. c #A5D7DB",
"H. c #C4C2C6",
"J. c #CBCBCE",
"K. c #C7C8CB",
"L. c #CFCED1",
"P. c #D0CFD1",
"I. c #D3D1D4",
"U. c #D7D9DC",
"Y. c #DEDDE0",
"T. c #E0DFE1",
"R. c #E3E2E4",
"E. c #ECEBED",
"W. c #E8E7E9",
"Q. c #EFEEF0",
"!. c #F0EFF1",
"~. c #F4F4F5",
"^. c #FEFEFE",
"/. c None",
/* pixels */
"/./././././././././././././././././././././././././././././././././././././././././././././././././././././././././././././././.",
"/./././././././././././././././././././././././././././././././././././././././././././././././././././././././././././././././.",
"/./././././././././././././././././././././././././././././././././././././././././././././././././././././././././././././././.",
"/./././././././././././././././././././././././././.^.^.^.^.^.^.^.^.^.^.^.^././././././././././././././././././././././././././.",
"/./././././././././././././././././././././.^.^.^.^.I.B.g.R J S F J R g.V.U.^.^.^.^././././././././././././././././././././././.",
"/./././././././././././././././././././.^.^.W.c.C ; O X X X O O O O X X X @ : C b.!.^.^././././././././././././././././././././.",
"/./././././././././././././././././.^.^.H.S * X O * * = - = = = = = = = = * & o X * J K.^.^././././././././././././././././././.",
"/./././././././././././././././.^.^.H.m X O * = = = = = = = = = = = = = = = = = = * X O M J.^.^././././././././././././././././.",
"/././././././././././././././.^.Q.G X O = = = = = = = = = = = = = = = = = = = = = = = = X O Y ~.^./././././././././././././././.",
"/././././././././././././.^.^.V.; X = = = = = = = = = = = = = = = = = = = = = = = = = = = = X : Z.^././././././././././././././.",
"/./././././././././././.^.^.^ X % = = = = = = = = = = = = = = = = = = = = = = = = = = = = = - @ X f.^.^././././././././././././.",
"/././././././././././.^.^.G   * = = = = = = = = = = = = = = = = = = = = = = = = = = = = = = = = *   T ^.^./././././././././././.",
"/./././././././././.^.^.C   = = = = = = = = = = = = = = = = = = = = = = = = = = = = = = = = = = = = . G ^.^././././././././././.",
"/././././././././.^.^.G   = = = = = = = = = = = = = = = = = = = = = = = = = = = = = = = = = = = = = *   T ^././././././././././.",
"/././././././././.^.[ . = = = = = = = = = = = = = = = = = = = = = = = = = = = = = = = = = = = = = = = =   g.^./././././././././.",
"/./././././././.^.V.  = = = = = = = = = = = = = = = = * = = = = = = = = = = = = = = = = = = = = = = = = = X Z.^././././././././.",
"/././././././.^.Q.* % = = = = = = = = = = = = = = = * * * * = = = = = = = = = = = = = = = = = = = = = = = % ; ~.^./././././././.",
"/././././././.^.G X - = = = = = = = = = = = = = = o f.R.j.o = = = = = * * * = = = = = = = = = = = = = = = = X T ^./././././././.",
"/./././././.^.H.X * = = = = = = = = = = = * = = = % G c.Y @ = = = = = = * = = = = = = = = = = = = = = = = = = o P.^././././././.",
"/./././././.^.5 @ = = = = = = = = = = = * * * = = O ^ U.f.O = = = * @ M.W.Q o = = = = = * * = = = = = = = = = O M ^././././././.",
"/././././.^.H.X = = = = = = = = = = = = = * * = = @ G c.Y % = = = = % W c.C % = = = = = = = = = = = = = = = = * X L.^./././././.",
"/././././.^.C O = = = = = = = = = = = O ~ W.M.O * o [ U.f.O = = = * o l.I.R o = = = * * Z.R.A O = = = = = = = = o J ^./././././.",
"/./././.^.W.% * = = = = = = = = = = = @ A c.~ @ * @ J c.Y @ = = * * @ W b.C @ = = * = * f.c.n % = = = = = = = = * * ~.^././././.",
"/./././.^.l.  = = = = = = = = = = = * X R I.g.W R.g.W P.f.O = o l.R.W f.I.E O = = * * & B.P.V O = = = = = = = = =   M.^././././.",
"/./././.^.m @ = = = = = = = = = = * % @ S b.T A b.J S M.Y @ = % R M.C T M.A % = = & % * f.b.n % = = = = = = = = = O A ^././././.",
"/./././.~.= * = = = = = * * = = O T T.c.J P.g.T P.} W P.f.o * O j.P.Y f.P.T o & % V.R.G c.P.V O * = = = = = = = = * : ^././././.",
"/././.^.J.o = = = = = * * % = * @ V M.W V M.T A M.Y S M.T @ & @ R N.C T N.C o * & f.M.m ^ M.n O * * = = = = = = = = @ U.^./././.",
"/././.^.c.X = = = * O A Y.Z.* * O J L.j.J P.f.T P.^ W P.Q [ R.^ ^ P.Y f.P.J l.T.J l.L.A b.P.V Z.T.M O * = = = = = = X B.^./././.",
"/././.^.^ X = = * & X 4 N.g.* % O V N.~ C N.R A N.T F N.J G N.F Y N.C T N.V Q N.M ^ N.B } M.n g.M.3 @ & * = = = = = X g.^./././.",
"/././.^.J O = @ M U.C.M J.z.H Y.v.H L.:.G J.:.K J.^ E J.R ! J.E ^ L.K :.L.G h.J.S z.J.C z.J.M m.K.M C.U.4 @ * = = = X R ^./././.",
"/././.^.C @ = % 3 N.:.n n.{ B n.{ B n.! M N.E H N.Y H N.K G N.H K N.C E N.M ! N.B ! N.m { n.n :.m.n k.n.< @ % * = = O G ^./././.",
"/././.^.m @ = % 8 S.1.t S.,.N F.>.Z F.;.D F.;.D F.U P F.P P F.P U F.D ;.F.D ;.S.Z ,.S.N 2.S.t 1.S.t 6.D.8 A.G.3 & = O A ^./././.",
"/././.^.m @ = # < 1.] 3 1.] 8 1.U 8 1.P t 1.P N x.D Z x.Z D x.Z D x.N K x.B P 1.t U 1.8 U 1.8 ] 1.3 ;.2.3 ;.2.> * = @ A ^./././.",
"/././.^.V @ = & 2 <.-.7 3.I 7 5.I t 3.L t 3.j i 5.j i 5.f f 5.i j 5.i L 3.r I 5.r I 3.8 I 3.2 ' 3.2 -.<.2 =.<.> * = O F ^./././.",
"/././.^.G O = # 7 d.4.r s.=.r a.-.i a.-.f a.' f a.I j a.c L a.j I a.f I a.i -.s.i -.a.t =.a.t <.s.r <.8.7 4.8., # = X R ^./././.",
"/././.^.~ o = = * % $ 6 $._ 6 $.b 6 $.x q $.x u $.h d &.d d $.d h $.u x $.q x %.9 _ $.6 _ &.6 | %.6 | +.2 ..+., * = X f.^./././.",
"/././.^.l.X = = = * # q p.+.e q.| u q._ d q._ d u.x h u.x h u.h b u.d b q.d ..p.d | q.w ..q.e +.e.e +.7.6 &.e., & = X N.^./././.",
"/././.^.K.o = = = = = * & + 6 #.v 0 #.l 0 #.k w #.h a #.a p #.p s #.w k #.y $ # & ( #.6 / #.1 + + =  .#.1 + # = = = O I.^./././.",
"/./././.~.* * = = = = = & + y 9.o.y 0.o.y 0./ a 9.z l r.v k 9.g z 0.a v 9.s + * & X.9.0  .9.9 # & - *.w., & = = = * : ^././././.",
"/./././.^.n @ = = = = = = & 6 @.z 6 @.k 0 @.k w @.l + & + g @.y s @.w g @.w # = & ) @.6 / #.1 & = = & & * = = = = O V ^././././.",
"/./././.^.j.  = = = = = = + y r.X.y 0.( s r.o.a 9.( + = + ( r.x z 0.a v 0.s + = & O.9.q O.r.0 # = = = * = = = = =   c.^././././.",
"/./././.^.W.% = = = = = = = = & $ 0 @.v & & + y @.k # = = * * + k @.w g @.w # = = v @.6 + & * = = = = = = = = = * * Q.^././././.",
"/././././.^.m O = = = = = = = & + s r.O.# * + k 0.( # = = = * +  .t.g v 0.a + = & @.r.y + = = = = = = = = = = = X S ^./././././.",
"/././././.^.Z.X = = = = = = = = = = & & = = & y @.k # = = = = = * & # z @.u # = ; & & = = = = = = = = = = = = = X J.^./././././.",
"/./././././.^.3 % = = = = = = = = = = = = = + l 0.o.# = = = = = = = # o.0.s # = = = & = = = = = = = = = = = = O n ^././././././.",
"/./././././.^.Z.  = = = = = = = = = = = = = # y O.k # = = = = = = = & k O.w # = = = = = = = = = = = = = = = = X K.^././././././.",
"/././././././.^.V o = = = = = = = = = = = = + l 0.( + = = = = = = = + X.y.k + = = = = = = = = = = = = = = = X G ^./././././././.",
"/././././././.^.W.& & = = = = = = = = = = = # y O.g & = = = = = = = = = & = = = = = = = = = = = = = = = = & = !.^./././././././.",
"/./././././././.^.b.  = = = = = = = = = = = + / y.X.+ = = = = = = = = = * = = = = = = = = = = = = = = = =   V.^././././././././.",
"/././././././././.^.R   = = = = = = = = = = = = - - = = = = = = = = = = = = = = = = = = = = = = = = = = . ^ ^./././././././././.",
"/././././././././.^.^.V X = = = = = = = = = = * * * = = = = = = = = = = = = = = = = = = = = = = = = =   F ^.^./././././././././.",
"/./././././././././.^.^.n X = = = = = = = = = = * = = = = = = = = = = = = = = = = = = = = = = = = =   V ^.^././././././././././.",
"/././././././././././.^.^.V   = = = = = = = = = = = = = = = = = = = = = = = = = = = = = = = = = =   S ^.^./././././././././././.",
"/./././././././././././.^.^.T   * = = = = = = = = = = = = = = = = = = = = = = = = = = = = = - &   ~ ^.^././././././././././././.",
"/././././././././././././.^.^.c.* X = = = = = = = = = = = = = = = = = = = = = = = = = = = = X = N.^.^./././././././././././././.",
"/././././././././././././././.^.T.V X @ = = = = = = = = = = = = = = = = = = = = = = = = @ X A W.^./././././././././././././././.",
"/./././././././././././././././.^.^.V.3 X O = = = * = = = = = = = = = = = = = = = * O X 5 Z.^.^././././././././././././././././.",
"/./././././././././././././././././.^.^.Z.m @ X @ * = = = = = = = = = = = = * @ X % M Z.^.^././././././././././././././././././.",
"/./././././././././././././././././././.^.^.Y.g.4 = o X X O @ % @ O O X X X = m j.R.^.^././././././././././././././././././././.",
"/./././././././././././././././././././././.^.^.^.!.H.l.~ G M m m V J ~ c.K.!.^.^.^././././././././././././././././././././././.",
"/./././././././././././././././././././././././././.^.^.^.^.^.^.^.^.^.^.^.^././././././././././././././././././././././././././.",
"/./././././././././././././././././././././././././././././././././././././././././././././././././././././././././././././././.",
"/./././././././././././././././././././././././././././././././././././././././././././././././././././././././././././././././.",
"/./././././././././././././././././././././././././././././././././././././././././././././././././././././././././././././././."
};
