/* XPM */
static char *_541d7bad601455ace161efb01ff5b39[] = {
/* columns rows colors chars-per-pixel */
"16 16 107 2 ",
"   c #0B0A15",
".  c #12121F",
"X  c #171524",
"o  c #181422",
"O  c #1B1524",
"+  c #1A1625",
"@  c #1D1524",
"#  c #1D1525",
"$  c #1C1625",
"%  c #1E1626",
"&  c #191928",
"*  c #1B1A2A",
"=  c #1B1B2A",
"-  c #1B1A2B",
";  c #1B1B2B",
":  c #1C1929",
">  c #1E1929",
",  c #1F192A",
"<  c #1D1A2B",
"1  c #1F1B2D",
"2  c #1F1C2D",
"3  c #1F1C2E",
"4  c #1E1D2E",
"5  c #1F1E2F",
"6  c #1F1E30",
"7  c #1F1E31",
"8  c #1F1F31",
"9  c #201D2F",
"0  c #201E2F",
"q  c #201E30",
"w  c #201F30",
"e  c #201E31",
"r  c #201F31",
"t  c #201F32",
"y  c #211F32",
"u  c #201F33",
"i  c #202032",
"p  c #212032",
"a  c #212033",
"s  c #222133",
"d  c #222134",
"f  c #222135",
"g  c #232135",
"h  c #232235",
"j  c #232236",
"k  c #222336",
"l  c #232337",
"z  c #242235",
"x  c #212538",
"c  c #232538",
"v  c #29263B",
"b  c #23283D",
"n  c #22293D",
"m  c #253951",
"M  c #3C3651",
"N  c #3D3853",
"B  c #3A3954",
"V  c #343E59",
"C  c #28435E",
"Z  c #2D4966",
"A  c #315576",
"S  c #3C5678",
"D  c #315D7F",
"F  c #46405F",
"G  c #454767",
"H  c #404D6C",
"J  c #524F73",
"K  c #4E5377",
"L  c #445678",
"P  c #525175",
"I  c #2F5F81",
"U  c #316184",
"Y  c #3F7099",
"T  c #377DA7",
"R  c #5B5B83",
"E  c #5E5981",
"W  c #4C6D97",
"Q  c #526E99",
"!  c #5B6E9A",
"~  c #447098",
"^  c #40759E",
"/  c #50729E",
"(  c #64729F",
")  c #4576A0",
"_  c #4F76A1",
"`  c #4378A2",
"'  c #407FAB",
"]  c #5474A0",
"[  c #5F72A0",
"{  c #5976A4",
"}  c #5D78A6",
"|  c #6D72A1",
" . c #6876A5",
".. c #627AA9",
"X. c #6B7BAD",
"o. c #7A7EB2",
"O. c #817FB5",
"+. c #8C7DB4",
"@. c #3380A9",
"#. c #3F80AC",
"$. c #4E81AE",
"%. c #5381AF",
"&. c #7781B4",
"*. c #7A85BB",
"=. c #9089C3",
"-. c #9C8DCA",
";. c None",
/* pixels */
";.;.;.;.;.;.;.;.;.;.;.;.;.;.;.;.",
";.;.;.;.;.a a h h a t ;.;.;.;.;.",
";.;.;.t h a t t t 0 4 h t ;.;.;.",
";.;.t h 0 & 4 a t t z t h t ;.;.",
";.;.h t 4 N v 4 o M +.= 7 z 7 ;.",
";.7 a * . -.F   J E =.= 4 a a ;.",
";.h * B P O.R G o.| &.o : a a ;.",
";.h X K *. .( X.[ ! ..L V : h ;.",
";.h & H } { Q ] / W _ %.S $ z ;.",
";.h 7 i c %.~ ^ ` Y ) T A $ h ;.",
";.t i 7 $ $.Z b D U T I C : t ;.",
";.t h 8 ; n t : O m @.$ 9 h t ;.",
";.;.t h t 4 0 t 0 t x t z t ;.;.",
";.;.;.t h a t 0 t 0 0 z t ;.;.;.",
";.;.;.;.t t h z h a t t ;.;.;.;.",
";.;.;.;.;.;.;.;.;.;.;.;.;.;.;.;."
};
