/* XPM */
static char *_2b74330cb5149cee310d3b9e9094b72[] = {
/* columns rows colors chars-per-pixel */
"64 64 170 2 ",
"   c #0F0E1A",
".  c #150E1B",
"X  c #1A0E1C",
"o  c #14101E",
"O  c #18121F",
"+  c #161523",
"@  c #1B1525",
"#  c #1B1827",
"$  c #1D1A2A",
"%  c #1F1E31",
"&  c #201D2F",
"*  c #201F31",
"=  c #222134",
"-  c #242539",
";  c #2A293A",
":  c #252D42",
">  c #2B2C43",
",  c #312E45",
"<  c #253044",
"1  c #2D3045",
"2  c #253148",
"3  c #2D334A",
"4  c #323044",
"5  c #333249",
"6  c #39354F",
"7  c #273B55",
"8  c #2B3B55",
"9  c #263B54",
"0  c #353B57",
"q  c #423D5A",
"w  c #2A4966",
"e  c #2B4865",
"r  c #304D6B",
"t  c #2F5879",
"y  c #45597D",
"u  c #4F486A",
"i  c #346C91",
"p  c #3C6B92",
"a  c #33739B",
"s  c #3C729B",
"d  c #39658B",
"f  c #3B7CA6",
"g  c #5F5B83",
"h  c #4A5F85",
"j  c #625F87",
"k  c #476C93",
"l  c #516E98",
"z  c #48739D",
"x  c #53739E",
"c  c #65608A",
"v  c #696B98",
"b  c #756A99",
"n  c #70709F",
"m  c #4A7BA7",
"M  c #437FAA",
"N  c #477DA9",
"B  c #5C74A2",
"V  c #537DAB",
"C  c #5B7CAB",
"Z  c #5B78A7",
"A  c #6274A2",
"S  c #6B74A3",
"D  c #627CAD",
"F  c #6B7CAD",
"G  c #7374A4",
"H  c #7C73A4",
"J  c #747BAD",
"K  c #797CAF",
"L  c #6B7FB1",
"P  c #647FB0",
"I  c #737FB2",
"U  c #7C7EB2",
"Y  c #837FB5",
"T  c #8A7FB6",
"R  c #8375A7",
"E  c #3987B3",
"W  c #4A86B4",
"Q  c #5785B5",
"!  c #6785B8",
"~  c #7686BB",
"^  c #3DA6D9",
"/  c #3EAADE",
"(  c #3EABE0",
")  c #3FB3E9",
"_  c #589DD2",
"`  c #7F89C0",
"'  c #7193CB",
"]  c #6A9BD3",
"[  c #769CD6",
"{  c #4AA1D6",
"}  c #44A6DA",
"|  c #4CA4DA",
" . c #42A9DF",
".. c #54A1D7",
"X. c #54A4DA",
"o. c #5CA4DC",
"O. c #64A2DA",
"+. c #6CA2DC",
"@. c #7CA2DD",
"#. c #74A2DD",
"$. c #44ACE2",
"%. c #4AAAE1",
"&. c #53AAE3",
"*. c #5CACE5",
"=. c #57AEE8",
"-. c #43B4EB",
";. c #4CB3EB",
":. c #53B2EC",
">. c #5BB2ED",
",. c #47B9F2",
"<. c #63ACE6",
"1. c #6BABE6",
"2. c #6CADE9",
"3. c #66A9E3",
"4. c #74A7E3",
"5. c #74ACE9",
"6. c #7CABEA",
"7. c #7AA7E4",
"8. c #62B3EE",
"9. c #6BB2EE",
"0. c #6CB3F1",
"q. c #67B4F0",
"w. c #74B3F1",
"e. c #7BB3F2",
"r. c #8E81B8",
"t. c #889DD9",
"y. c #9290CC",
"u. c #A693D2",
"i. c #85A1DF",
"p. c #95A0DF",
"a. c #83A5E3",
"s. c #8BA4E3",
"d. c #8DA8E7",
"f. c #83ACEB",
"g. c #8CACED",
"h. c #93A3E2",
"j. c #9BA3E5",
"k. c #93ABEC",
"l. c #9BABED",
"z. c #99AEF0",
"x. c #83B3F3",
"c. c #8BB3F5",
"v. c #83BBFE",
"b. c #93B3F5",
"n. c #9EB3F7",
"m. c #97B5F8",
"M. c #9CB4F9",
"N. c #A3A3E5",
"B. c #A3A8EB",
"V. c #ACA5E9",
"C. c #B3A8EE",
"Z. c #BCA9EF",
"A. c #B8A4EA",
"S. c #A3ADF1",
"D. c #AAACF2",
"F. c #B2ADF4",
"G. c #BCACF5",
"H. c #A4B4F9",
"J. c #ACB4FB",
"K. c #B3B4FD",
"L. c #BCB4FE",
"P. c #BCB9FF",
"I. c #B3BBFF",
"U. c #C1ACF5",
"Y. c #C5B3FE",
"T. c #CAB4FE",
"R. c #C4BAFF",
"E. c #CFB8FF",
"W. c #D4BCFF",
"Q. c None",
/* pixels */
"Q.Q.Q.Q.Q.Q.Q.Q.Q.Q.Q.Q.Q.Q.Q.Q.Q.Q.Q.Q.Q.Q.Q.Q.Q.Q.Q.Q.Q.Q.Q.Q.Q.Q.Q.Q.Q.Q.Q.Q.Q.Q.Q.Q.Q.Q.Q.Q.Q.Q.Q.Q.Q.Q.Q.Q.Q.Q.Q.Q.Q.Q.Q.Q.",
"Q.Q.Q.Q.Q.Q.Q.Q.Q.Q.Q.Q.Q.Q.Q.Q.Q.Q.Q.Q.Q.Q.Q.Q.Q.Q.Q.Q.Q.Q.Q.Q.Q.Q.Q.Q.Q.Q.Q.Q.Q.Q.Q.Q.Q.Q.Q.Q.Q.Q.Q.Q.Q.Q.Q.Q.Q.Q.Q.Q.Q.Q.Q.Q.",
"Q.Q.Q.Q.Q.Q.Q.Q.Q.Q.Q.Q.Q.Q.Q.Q.Q.Q.Q.Q.Q.Q.Q.Q.Q.Q.Q.Q.Q.Q.= ; ; - Q.Q.Q.Q.Q.Q.Q.Q.Q.Q.Q.Q.Q.Q.Q.Q.Q.Q.Q.Q.Q.Q.Q.Q.Q.Q.Q.Q.Q.Q.",
"Q.Q.Q.Q.Q.Q.Q.Q.Q.Q.Q.Q.Q.Q.Q.Q.Q.Q.Q.Q.Q.Q.Q.Q.* = * = = = = = = = = = = * = * Q.Q.Q.Q.Q.Q.Q.Q.Q.Q.Q.Q.Q.Q.Q.Q.Q.Q.Q.Q.Q.Q.Q.Q.",
"Q.Q.Q.Q.Q.Q.Q.Q.Q.Q.Q.Q.Q.Q.Q.Q.Q.Q.Q.Q.Q.& % = = = * * * * * * * * * * * * = = = * * Q.Q.Q.Q.Q.Q.Q.Q.Q.Q.Q.Q.Q.Q.Q.Q.Q.Q.Q.Q.Q.",
"Q.Q.Q.Q.Q.Q.Q.Q.Q.Q.Q.Q.Q.Q.Q.Q.Q.Q.Q.= = = = = * * * * * * * * * * * * * * * * * = = = = Q.Q.Q.Q.Q.Q.Q.Q.Q.Q.Q.Q.Q.Q.Q.Q.Q.Q.Q.",
"Q.Q.Q.Q.Q.Q.Q.Q.Q.Q.Q.Q.Q.Q.Q.Q.Q.= = = = % % & * * * * * * * * * * * * * * * * * * * * = = * Q.Q.Q.Q.Q.Q.Q.Q.Q.Q.Q.Q.Q.Q.Q.Q.Q.",
"Q.Q.Q.Q.Q.Q.Q.Q.Q.Q.Q.Q.Q.Q.Q.* = = % = & % % = * * * * * * * * * * * * * * * * * * * * * * = = * Q.Q.Q.Q.Q.Q.Q.Q.Q.Q.Q.Q.Q.Q.Q.",
"Q.Q.Q.Q.Q.Q.Q.Q.Q.Q.Q.Q.Q.Q.* = = % * * * * % & * * * * * * * * * * * * * * * * * * * * * * * * = * Q.Q.Q.Q.Q.Q.Q.Q.Q.Q.Q.Q.Q.Q.",
"Q.Q.Q.Q.Q.Q.Q.Q.Q.Q.Q.Q.Q.= = * * * * * * * = & = * * * * * * * * * * * * * * * * * * * * * * * * = = Q.Q.Q.Q.Q.Q.Q.Q.Q.Q.Q.Q.Q.",
"Q.Q.Q.Q.Q.Q.Q.Q.Q.Q.Q.Q.= = * * * * * * * * % * % % * * * * * * * * * * * * * * * * * * * * * * * * = * Q.Q.Q.Q.Q.Q.Q.Q.Q.Q.Q.Q.",
"Q.Q.Q.Q.Q.Q.Q.Q.Q.Q.Q.= * * * * * * * * * * * * * * * * * * * * * * * * * * * * * * * * * * * * * * * = = Q.Q.Q.Q.Q.Q.Q.Q.Q.Q.Q.",
"Q.Q.Q.Q.Q.Q.Q.Q.Q.Q.= = * * * * * * * * * * * * * * * * * * * % * * * * * * * * * * * * * * * * * * * * * = Q.Q.Q.Q.Q.Q.Q.Q.Q.Q.",
"Q.Q.Q.Q.Q.Q.Q.Q.Q.= * * * * * * * * * * * * * * * * * * % = * * * * * * * * * * * * * * * * * * * * * * * = * Q.Q.Q.Q.Q.Q.Q.Q.Q.",
"Q.Q.Q.Q.Q.Q.Q.Q.= = * * * * * * * * * * * * * * * * * * * % * * * * * * * * * * % # * = * * * * * * * * * * = * Q.Q.Q.Q.Q.Q.Q.Q.",
"Q.Q.Q.Q.Q.Q.Q.* = % * * * * * * * * * * * * * * * * * * * * * * * * * * * * = # = > # * * * * * * * * * * * * = * Q.Q.Q.Q.Q.Q.Q.",
"Q.Q.Q.Q.Q.Q.Q.= * * * * * * * * * * * * * * * * % = % * * * * * * * * * * % # 5 u.A.b # % * * * * * * * * * * * = Q.Q.Q.Q.Q.Q.Q.",
"Q.Q.Q.Q.Q.Q.% = * * * * * * * * * * * * * * @ # % % % * * * * * * * * * * % + H W.T.Z., $ * * * * * * * * * * * = * Q.Q.Q.Q.Q.Q.",
"Q.Q.Q.Q.Q.Q.= * * * * * * * * * * * * * # & q 5 $ = * * * * * * * * * * * * o R E.U.G.5 $ % * * * * * * * * * * * = Q.Q.Q.Q.Q.Q.",
"Q.Q.Q.Q.Q.% = * * * * * * * * * * * * & # H T.U.u + * * * * * * * * * * * * + H T.G.C.5 $ % * * * * * * * * * * * = * Q.Q.Q.Q.Q.",
"Q.Q.Q.Q.Q.= * * * * * * * * * * * * * $ > A.Y.E.T + * * * * * * * % + + # * + H Y.G.C., $ % % % * * * * * * * * * * = Q.Q.Q.Q.Q.",
"Q.Q.Q.Q.* = * * * * * * * * * * * * * $ , A.U.T.r.+ * * * * * * % % g b 5 # + H L.G.C.5 # % % % * * * * * * * * * * = % Q.Q.Q.Q.",
"Q.Q.Q.Q.% = * * * * * * * * * * * * & $ > V.G.Y.T # % * * * * * + c R.R.y.* o G L.F.V.3 $ % * * * * * * * * * * * * = * Q.Q.Q.Q.",
"Q.Q.Q.Q.= * * * * * * * * * * * * * & # > V.G.Y.Y # % * * * * * + Y L.D.V.,   G K.D.D.> # * * * * * * * * * * * * * * = Q.Q.Q.Q.",
"Q.Q.Q.* = * * * * * * * * * * $ + + % $ > V.F.L.Y @ % $ + + # = @ K K.D.B.5   G J.S.B.3 # * * * * * * * * * * * * * * = * Q.Q.Q.",
"Q.Q.Q.- * * * * * * * * * * # 0 H j % $ ; N.F.K.Y @ # 3 n v - $ # K J.S.j.>   S J.S.l., # * * * * * * * * * * * * * * = * Q.Q.Q.",
"Q.Q.Q.= * * * * * * * * * & = p.P.P.g o > N.D.J.U + $ y.K.I.n @ + J H.S.j.>   S H.z.k.4 $ * * * * * * * * * * * * * * * * Q.Q.Q.",
"Q.Q.Q.= * * * * * * * * * @ 5 D.D.J.J o > j.D.J.U + = p.S.H.` # @ J H.z.d.>   n M.l.d.1 $ * % % * * * * * * * * * * * * = Q.Q.Q.",
"Q.Q.Q.= = = * * * * * * * # 1 B.S.J.G + > p.S.H.I + - p.l.n.~ # @ F m.k.h.> . A m.g.d.1 # * # * # * * * * * * * * * * * = Q.Q.Q.",
"Q.Q.4 = % % * * * * * * = # 5 j.l.H.S o > h.z.n.I + - t.k.b.~ # @ F b.g.a.> . A c.g.a.3 # - A ' y # * * * * * * * * * * = 5 Q.Q.",
"Q.Q.; = * * * * * * * * % # 3 k.z.n.S o > t.k.m.L + - t.b.g.! # # D b.g.a.> . B c.6.7.> o h v.x.6.3 $ * * * * * * * * * = ; Q.Q.",
"Q.Q.; = * * * * * * * * = # 1 d.g.m.A + : i.g.b.L + - [ g.c.! $ @ C x.6.@.> . B x.6.7.> X l e.5.5.0 # * * * * * * * * * = ; Q.Q.",
"Q.Q.; = * * * * * * * * * # > d.g.b.A o : i.f.c.P @ - [ f.e.! # @ C e.6.#.1 . x e.5.4.1 . k w.5.2.8 $ = % * * * * * * * = ; Q.Q.",
"Q.Q.; = * * * * * * * * * # 3 a.f.c.B o ; #.f.x.D + - ] 6.e.! # @ C e.5.+.> X x w.2.3.1 X k 0.3.3.8 @ = % = * * * * * * = ; Q.Q.",
"Q.Q.4 = * * * * * * * * * $ 5 6.6.x.Z o : #.6.e.C @ - ] 5.w.! @ @ V 9.2.O.1 o x 0.<.3.1 X k q.3.<.8 $ = % & % = * * * * = 4 Q.Q.",
"Q.Q.Q.= * * * * * * * * * * = ] v.v.y . > +.5.w.V @ - ] 5.0.Q @ @ V 9.1.O.: X z q.<.O.< X k >.*.*.0 @ & % = % & * * * * = Q.Q.Q.",
"Q.Q.Q.= * * * * * * * * * * $ 5 x y $ $ : O.1.w.V @ = _ 1.9.W & @ V 8.<.o.1 o z 8.*.o.< X p =.&.&.8 # = & = % % * * * * = Q.Q.Q.",
"Q.Q.Q.= * * * * * * * * * * * # O @ % $ > O.1.8.W @ - _ <.8.W @ @ m >.*.X.: . z >.&.&.< X p >.&.&.8 # = & & = & * * * * = Q.Q.Q.",
"Q.Q.Q.- * * * * * * * * * * * * * * * $ : _ <.8.N @ - _ *.>.W & @ N =.=...: X s :.&.X.2 X p :.%.%.8 # & = % & % * * * = = Q.Q.Q.",
"Q.Q.Q.= * * * * * * * * * * * * * * * $ > ..*.>.M @ = _ =.>.W @ @ f :.&.| : X s ;.%.| 2 X i ;.%.%.9 # & & = = % * * * = * Q.Q.Q.",
"Q.Q.Q.Q.= * * * * * * * * * * * * * * & : _ &.=.M $ @ d =.&.r @ @ N ;.%.{ : X s ;.%.} : X i ;. . .8 # % = & = & * * * = Q.Q.Q.Q.",
"Q.Q.Q.Q.* * * * * * * * * * * * * * * # : { &.;.M @ * $ 8 2 @ * @ f ;.%.} : X s -. .} < X i ,.( $.8 # % % % % % % * * * Q.Q.Q.Q.",
"Q.Q.Q.Q.* = * * * * * * * * * * * * * & : | %.;.f @ * & # & * * # w $.,.s & X a -.( ^ < X 8 ^ ,.E * & = % & & = * * = = Q.Q.Q.Q.",
"Q.Q.Q.Q.Q.= * * * * * * * * * * * * * * & E ,.,.t @ * * * * * * * @ 9 e & & @ a ) ( ^ < & # 2 e * % & % % = % % * * = Q.Q.Q.Q.Q.",
"Q.Q.Q.Q.Q.* = * * * * * * * * * * * * * & = t w & * * * * * * * * * # @ * * @ a ) / ^ < $ % # @ % * * * % & = = = = = Q.Q.Q.Q.Q.",
"Q.Q.Q.Q.Q.Q.= * * * * * * * * * * * * * * & @ # * * * * * * * * * * * * * * @ a ) / ^ < $ % * * * * * * % = % % % = Q.Q.Q.Q.Q.Q.",
"Q.Q.Q.Q.Q.Q.* = * * * * * * * * * * * * * * * * * * * * * * * * * * * * * * @ s ) ( ( < & * * * * * * * % & % % = % Q.Q.Q.Q.Q.Q.",
"Q.Q.Q.Q.Q.Q.Q.= * * * * * * * * * * * * * * * * * * * * * * * * * * * * * * @ 8 ^ ) a % * * * * * * * * % = & = = Q.Q.Q.Q.Q.Q.Q.",
"Q.Q.Q.Q.Q.Q.Q.* = * * * * * * * * * * * * * * * * * * * * * * * * * * * * * * $ < 7 $ % & % & % * * * * * * * = * Q.Q.Q.Q.Q.Q.Q.",
"Q.Q.Q.Q.Q.Q.Q.Q.* = * * * * * * * * * * * * * * * * * * * * * * * * * * * * * * & # & % = % = % * * * * * % = * Q.Q.Q.Q.Q.Q.Q.Q.",
"Q.Q.Q.Q.Q.Q.Q.Q.Q.= = * * * * * * * * * * * * * * * * * * * * * * * * * * * * * * * & = % % & = * * * * * = = Q.Q.Q.Q.Q.Q.Q.Q.Q.",
"Q.Q.Q.Q.Q.Q.Q.Q.Q.Q.= * * * * * * * * * * * * * * * * * * * * * * * * * * * * * * * % % = & % % * * * * = = Q.Q.Q.Q.Q.Q.Q.Q.Q.Q.",
"Q.Q.Q.Q.Q.Q.Q.Q.Q.Q.Q.- * * * * * * * * * * * * * * * * * * * * * * * * * * * * * * * * % = % = * * % * = Q.Q.Q.Q.Q.Q.Q.Q.Q.Q.Q.",
"Q.Q.Q.Q.Q.Q.Q.Q.Q.Q.Q.Q.- * * * * * * * * * * * * * * * * * * * * * * * * * * * * * * * % = % & * * = - Q.Q.Q.Q.Q.Q.Q.Q.Q.Q.Q.Q.",
"Q.Q.Q.Q.Q.Q.Q.Q.Q.Q.Q.Q.Q.* * * * * * * * * * * * * * * * * * * * * * * * * * * * * * * * & % = * = * Q.Q.Q.Q.Q.Q.Q.Q.Q.Q.Q.Q.Q.",
"Q.Q.Q.Q.Q.Q.Q.Q.Q.Q.Q.Q.Q.Q.* - * * * * * * * * * * * * * * * * * * * * * * * * * * * * * * % % = * Q.Q.Q.Q.Q.Q.Q.Q.Q.Q.Q.Q.Q.Q.",
"Q.Q.Q.Q.Q.Q.Q.Q.Q.Q.Q.Q.Q.Q.Q.* = = * * * * * * * * * * * * * * * * * * * * * * * * * * * * = = = Q.Q.Q.Q.Q.Q.Q.Q.Q.Q.Q.Q.Q.Q.Q.",
"Q.Q.Q.Q.Q.Q.Q.Q.Q.Q.Q.Q.Q.Q.Q.Q.Q.* = = * * * * * * * * * * * * * * * * * * * * * * * * = = = Q.Q.Q.Q.Q.Q.Q.Q.Q.Q.Q.Q.Q.Q.Q.Q.Q.",
"Q.Q.Q.Q.Q.Q.Q.Q.Q.Q.Q.Q.Q.Q.Q.Q.Q.Q.Q.= = = * * * * * * * * * * * * * * = & * * = * = = = Q.Q.Q.Q.Q.Q.Q.Q.Q.Q.Q.Q.Q.Q.Q.Q.Q.Q.Q.",
"Q.Q.Q.Q.Q.Q.Q.Q.Q.Q.Q.Q.Q.Q.Q.Q.Q.Q.Q.Q.Q.* * - = = * * * * * * * * * * & & & = = * = Q.Q.Q.Q.Q.Q.Q.Q.Q.Q.Q.Q.Q.Q.Q.Q.Q.Q.Q.Q.Q.",
"Q.Q.Q.Q.Q.Q.Q.Q.Q.Q.Q.Q.Q.Q.Q.Q.Q.Q.Q.Q.Q.Q.Q.Q.* * = = = = = = = = = = = = = & Q.Q.Q.Q.Q.Q.Q.Q.Q.Q.Q.Q.Q.Q.Q.Q.Q.Q.Q.Q.Q.Q.Q.Q.",
"Q.Q.Q.Q.Q.Q.Q.Q.Q.Q.Q.Q.Q.Q.Q.Q.Q.Q.Q.Q.Q.Q.Q.Q.Q.Q.Q.Q.Q.% = - - = = Q.Q.Q.Q.Q.Q.Q.Q.Q.Q.Q.Q.Q.Q.Q.Q.Q.Q.Q.Q.Q.Q.Q.Q.Q.Q.Q.Q.Q.",
"Q.Q.Q.Q.Q.Q.Q.Q.Q.Q.Q.Q.Q.Q.Q.Q.Q.Q.Q.Q.Q.Q.Q.Q.Q.Q.Q.Q.Q.Q.Q.Q.Q.Q.Q.Q.Q.Q.Q.Q.Q.Q.Q.Q.Q.Q.Q.Q.Q.Q.Q.Q.Q.Q.Q.Q.Q.Q.Q.Q.Q.Q.Q.Q.",
"Q.Q.Q.Q.Q.Q.Q.Q.Q.Q.Q.Q.Q.Q.Q.Q.Q.Q.Q.Q.Q.Q.Q.Q.Q.Q.Q.Q.Q.Q.Q.Q.Q.Q.Q.Q.Q.Q.Q.Q.Q.Q.Q.Q.Q.Q.Q.Q.Q.Q.Q.Q.Q.Q.Q.Q.Q.Q.Q.Q.Q.Q.Q.Q."
};
