/* XPM */
static char *_3e05a3e0291489ce6823ecc9b2ca22a[] = {
/* columns rows colors chars-per-pixel */
"16 16 138 2 ",
"   c #0C0412",
".  c #1C0310",
"X  c #110816",
"o  c #140917",
"O  c #100A18",
"+  c #130A18",
"@  c #140A18",
"#  c #150A18",
"$  c #140B19",
"%  c #130C1A",
"&  c #130D1A",
"*  c #130D1B",
"=  c #130E1B",
"-  c #150C1B",
";  c #140D1B",
":  c #150F1C",
">  c #150F1D",
",  c #1D0C19",
"<  c #1D0F1C",
"1  c #16101E",
"2  c #17101E",
"3  c #17111E",
"4  c #17121F",
"5  c #191220",
"6  c #1B1320",
"7  c #1A1421",
"8  c #1B1522",
"9  c #1E1421",
"0  c #1E1522",
"q  c #1C1623",
"w  c #1E1622",
"e  c #1E1623",
"r  c #1D1724",
"t  c #1E1825",
"y  c #1E1925",
"u  c #1F1926",
"i  c #1E1E2A",
"p  c #211B27",
"a  c #231B28",
"s  c #1F222F",
"d  c #1E2330",
"f  c #1F2A36",
"g  c #1F2E3B",
"h  c #29212E",
"j  c #2B2532",
"k  c #2C2533",
"l  c #2D2735",
"z  c #2E2835",
"x  c #2F2A36",
"c  c #20303D",
"v  c #30303C",
"b  c #39333F",
"n  c #173340",
"m  c #203642",
"M  c #3A3440",
"N  c #413C47",
"B  c #413C48",
"V  c #423D48",
"C  c #433D48",
"Z  c #423D49",
"A  c #433D49",
"S  c #433E49",
"D  c #443E4A",
"F  c #443E4B",
"G  c #453F4B",
"H  c #21424F",
"J  c #204653",
"K  c #204855",
"L  c #204956",
"P  c #224D5A",
"I  c #22525E",
"U  c #215561",
"Y  c #215663",
"T  c #225662",
"R  c #235864",
"E  c #3D606B",
"W  c #246B77",
"Q  c #25707C",
"!  c #25737F",
"~  c #48434D",
"^  c #4F4954",
"/  c #4E4A54",
"(  c #4F4A54",
")  c #504953",
"_  c #514C56",
"`  c #504C57",
"'  c #514C57",
"]  c #534E58",
"[  c #534F58",
"{  c #55515A",
"}  c #57515A",
"|  c #57535D",
" . c #605A63",
".. c #6C666E",
"X. c #6B6770",
"o. c #606871",
"O. c #79757E",
"+. c #7A777E",
"@. c #7A767F",
"#. c #7B767F",
"$. c #7B787F",
"%. c #247884",
"&. c #267B87",
"*. c #437580",
"=. c #497C86",
"-. c #497D87",
";. c #487F89",
":. c #497F89",
">. c #497F8A",
",. c #4B7F8A",
"<. c #747C84",
"1. c #7B7880",
"2. c #7E7980",
"3. c #7E7B82",
"4. c #787F87",
"5. c #278592",
"6. c #278A97",
"7. c #278C98",
"8. c #49808A",
"9. c #49818B",
"0. c #4E8892",
"q. c #4F8C96",
"w. c #7D848C",
"e. c #7E858C",
"r. c #818990",
"t. c #828A91",
"y. c #848B92",
"u. c #858C93",
"i. c #908B91",
"p. c #948F95",
"a. c #99949A",
"s. c #9A989D",
"d. c #9C999F",
"f. c #9D9BA0",
"g. c #9E9BA1",
"h. c #9F9CA2",
"j. c #A19EA4",
"k. c None",
/* pixels */
"k.k.k.k.k.k.k.k.k.k.k.k.k.k.k.k.",
"k.k.k.k.k.3.` V F ` 3.k.k.k.k.k.",
"k.k.k.h.F 4 * 4 4 * : F j.k.k.k.",
"k.k.f.l ; r 8 r 8 8 t ; z f.k.k.",
"k.k.V * t O ~ M t z 6 0 : G k.k.",
"k.$.* 6 p | X.M } ] r ` : : 3.k.",
"k./ 6 h } a.p.} i. ...3.p   _ k.",
"k.V o.4.4.r.w.r.w.r.u.y.<.v V k.",
"k.B E 0.,.=.:.:.-.9.:.:.q.*.V k.",
"k._ O R 7.5.! &.7.I ! W P n _ k.",
"k.O.# p T T K d %.J K g < # O.k.",
"k.k.B O , m T . c H , 0 * V k.k.",
"k.k.s.k # d f 0 0 0 t : k f.k.k.",
"k.k.k.d.B : o 4 4 : : V f.k.k.k.",
"k.k.k.k.k.O./ N N / O.k.k.k.k.k.",
"k.k.k.k.k.k.k.k.k.k.k.k.k.k.k.k."
};
