/* XPM */
static char *e7311825a5fb47978fb2f9ba0c53d139[] = {
/* columns rows colors chars-per-pixel */
"32 32 135 2 ",
"   c #03000B",
".  c #0E040E",
"X  c #1A0005",
"o  c #1C000D",
"O  c #0C0513",
"+  c #0F0916",
"@  c #1D0511",
"#  c #110916",
"$  c #1C0A17",
"%  c #130D1A",
"&  c #1C0C19",
"*  c #17101E",
"=  c #1C111E",
"-  c #1C1522",
";  c #1E1825",
":  c #1D1E2B",
">  c #211A27",
",  c #231C2A",
"<  c #1F2532",
"1  c #1F2936",
"2  c #1E2D3A",
"3  c #26202D",
"4  c #28212D",
"5  c #2F2936",
"6  c #2C2633",
"7  c #302B37",
"8  c #332E3A",
"9  c #20323F",
"0  c #35303C",
"q  c #203945",
"w  c #213C49",
"e  c #3C3743",
"r  c #3E3944",
"t  c #413B46",
"y  c #423D49",
"u  c #224551",
"i  c #224956",
"p  c #224D5A",
"a  c #304955",
"s  c #23525E",
"d  c #225663",
"f  c #275966",
"g  c #245D6A",
"h  c #23616D",
"j  c #37626E",
"k  c #236470",
"l  c #236975",
"z  c #286B77",
"x  c #47424E",
"c  c #4B4751",
"v  c #414853",
"b  c #4E4954",
"n  c #534D57",
"m  c #534E59",
"M  c #55515B",
"N  c #59555F",
"B  c #5C5761",
"V  c #5C5963",
"C  c #615C66",
"Z  c #635F68",
"A  c #57636D",
"S  c #65626C",
"D  c #6A656F",
"F  c #6A6770",
"G  c #6E6972",
"H  c #716C75",
"J  c #726E78",
"K  c #76717B",
"L  c #79757E",
"P  c #297B87",
"I  c #247D8A",
"U  c #2A7E8A",
"Y  c #3E7E89",
"T  c #3B7B86",
"R  c #547781",
"E  c #557B85",
"W  c #7B7780",
"Q  c #7D7981",
"!  c #807C83",
"~  c #25818E",
"^  c #2A818D",
"/  c #3F828D",
"(  c #258692",
")  c #2A8692",
"_  c #268A96",
"`  c #2B8A96",
"'  c #268E9A",
"]  c #3F8691",
"[  c #27919D",
"{  c #2793A0",
"}  c #2B97A3",
"|  c #2799A5",
" . c #40828D",
".. c #57838C",
"X. c #5D858E",
"o. c #408B96",
"O. c #418F9A",
"+. c #74858D",
"@. c #76888F",
"#. c #768890",
"$. c #7C8D94",
"%. c #4295A0",
"&. c #85858C",
"*. c #8A868D",
"=. c #8A888F",
"-. c #8B8A91",
";. c #928E94",
":. c #8F9096",
">. c #809299",
",. c #96949A",
"<. c #99969C",
"1. c #9B989E",
"2. c #889CA3",
"3. c #9F9DA2",
"4. c #A09DA3",
"5. c #A3A2A7",
"6. c #A8A5AA",
"7. c #B1AFB3",
"8. c #B6B4B8",
"9. c #B8B6BA",
"0. c #BCBABE",
"q. c #BFBDC1",
"w. c #C1C0C3",
"e. c #C6C5C8",
"r. c #C8C6C9",
"t. c #CCCBCE",
"y. c #CFCED1",
"u. c #D0CFD2",
"i. c #D4D3D5",
"p. c #D8D7DA",
"a. c #E5E4E6",
"s. c #EAEAEB",
"d. c #F6F6F6",
"f. c #FDFDFD",
"g. c None",
/* pixels */
"g.g.g.g.g.g.g.g.g.g.g.g.g.g.g.g.g.g.g.g.g.g.g.g.g.g.g.g.g.g.g.g.",
"g.g.g.g.g.g.g.g.g.g.g.g.g.g.g.f.f.g.g.g.g.g.g.g.g.g.g.g.g.g.g.g.",
"g.g.g.g.g.g.g.g.g.g.g.t.,.L C m M C L ,.t.g.g.g.g.g.g.g.g.g.g.g.",
"g.g.g.g.g.g.g.g.g.q.D , O O % * * % O O 4 F q.g.g.g.g.g.g.g.g.g.",
"g.g.g.g.g.g.g.s.L * O ; ; ; ; ; ; ; ; ; - O * W s.g.g.g.g.g.g.g.",
"g.g.g.g.g.g.p.y O - ; ; ; ; ; ; ; ; ; ; ; ; - O x p.g.g.g.g.g.g.",
"g.g.g.g.g.i.7 + > ; ; ; ; ; > - ; ; ; ; ; ; ; ; # 0 p.g.g.g.g.g.",
"g.g.g.g.a.y + > ; ; - ; > + * > ; ; ; ; ; ; ; ; : + x s.g.g.g.g.",
"g.g.g.g.W   : ; ; ; ; ; - Z e * > * + ; ; ; ; ; ; >   ! g.g.g.g.",
"g.g.g.q.% ; ; ; ; ; # * - 5.N % * y Z - ; ; O - ; ; - * e.g.g.g.",
"g.g.f.D + ; ; ; ; - Z e   ,.M %   B 4.* - > F 7 - ; - O G g.g.g.",
"g.g.t., - ; ; ; -   1.W M ,.n % B K -.* % * 7.t * ; ; - 4 i.g.g.",
"g.g.,.O > - + - 7 V *.-.,.<.c   4.=.=.  r S 3.0 O ; ; ; O 1.g.g.",
"g.g.K + O 4 F + t 6.-.*.-.;.H M ;.*.=.n Q 1.;.F n O - > + W g.g.",
"g.f.B O n F 5.N S :.=.&.=.*.=.,.=.&.=.1.=.=.=.-.-.V , # % C g.g.",
"g.f.b O @.$.@.$.$.+.#.+.#.#.+.+.@.+.@.@.+.#.#.+.@.2.A v + m f.g.",
"g.d.b + E ..E E E E E E E E R E E A ....E E E E E E X.A + M f.g.",
"g.f.B O a j %. .Y / / Y  . .Y  ./ Y / %./ / / ] o./ o.Y + V g.g.",
"g.g.K + $ : s U U U U U ^ ` U U U P ~ u z ^ ) f p } g u . L g.g.",
"g.g.,.O ; - o ( ( I _ ~ ~ i l ' I I ~ X s _ | 2 $ h : $ + <.g.g.",
"g.g.t.> - ; - i k { p h _ @ 1 d ' ~ I @ h ' s 1 - $ - - , u.g.g.",
"g.g.f.S + ; ; @ < g @ w [ ; = $ p l ^ $ w s @ = ; ; ; + D g.g.g.",
"g.g.g.0.# ; ; ; - $ * u ' - ; ; o s [ = = $ > ; ; ; ; % q.g.g.g.",
"g.g.g.f.K O ; ; ; ; = u } - - ; = q d - > ; ; ; ; ; O L g.g.g.g.",
"g.g.g.g.a.e # ; ; ; - 9 g ; - ; > * & ; ; ; ; ; > + t a.g.g.g.g.",
"g.g.g.g.g.u.6 # ; : ; = $ ; ; ; ; ; ; ; ; ; ; ; + 5 i.g.g.g.g.g.",
"g.g.g.g.g.g.u.e O - ; ; ; ; ; ; ; ; ; ; ; ; ; O t i.g.g.g.g.g.g.",
"g.g.g.g.g.g.g.a.J # + ; ; ; ; ; ; ; ; ; ; O % K s.g.g.g.g.g.g.g.",
"g.g.g.g.g.g.g.g.f.9.C > O + % * * # # O , Z 9.f.g.g.g.g.g.g.g.g.",
"g.g.g.g.g.g.g.g.g.g.f.e.;.G B b c B J ;.r.f.g.g.g.g.g.g.g.g.g.g.",
"g.g.g.g.g.g.g.g.g.g.g.g.g.g.f.d.d.f.g.g.g.g.g.g.g.g.g.g.g.g.g.g.",
"g.g.g.g.g.g.g.g.g.g.g.g.g.g.g.g.g.g.g.g.g.g.g.g.g.g.g.g.g.g.g.g."
};
