/* XPM */
static char *_21cc0c372e44638e27368b2cb4f514d[] = {
/* columns rows colors chars-per-pixel */
"32 32 121 2 ",
"   c #15121F",
".  c #1D101E",
"X  c #141422",
"o  c #1B1423",
"O  c #1D1B2C",
"+  c #1F1E31",
"@  c #201E2F",
"#  c #201F31",
"$  c #222134",
"%  c #262439",
"&  c #25293E",
"*  c #2A283E",
"=  c #242C42",
"-  c #2E2C42",
";  c #243047",
":  c #2D3148",
">  c #2F3750",
",  c #263A53",
"<  c #2A3B54",
"1  c #2C3D58",
"2  c #313A54",
"3  c #3C3954",
"4  c #333D59",
"5  c #3C3E5A",
"6  c #433F5E",
"7  c #27405A",
"8  c #2B435F",
"9  c #32435F",
"0  c #3A415E",
"q  c #2B4662",
"w  c #2B4C6A",
"e  c #344461",
"r  c #3C4462",
"t  c #344967",
"y  c #384967",
"u  c #314C6A",
"i  c #3C4968",
"p  c #2D5B7C",
"a  c #3B5779",
"s  c #355A7D",
"d  c #434463",
"f  c #4B4768",
"g  c #424A6A",
"h  c #544C6F",
"j  c #4F4F72",
"k  c #514E72",
"l  c #445274",
"z  c #4F5175",
"x  c #42577A",
"c  c #4A577B",
"v  c #575177",
"b  c #585176",
"n  c #5A577D",
"m  c #51597F",
"M  c #61577E",
"N  c #375E81",
"B  c #3C5E82",
"V  c #336183",
"C  c #3B6184",
"Z  c #306789",
"A  c #3D678C",
"S  c #316E91",
"D  c #3B6F97",
"F  c #34749B",
"G  c #3B7099",
"H  c #455E83",
"J  c #4C5D83",
"K  c #535D84",
"L  c #5A5E86",
"P  c #446186",
"I  c #45658B",
"U  c #4E638A",
"Y  c #5B6B95",
"T  c #536F9B",
"R  c #45719A",
"E  c #4D729D",
"W  c #60618B",
"Q  c #666590",
"!  c #6C6693",
"~  c #636B97",
"^  c #676D99",
"/  c #6C6B98",
"(  c #746997",
")  c #716B99",
"_  c #7B6F9F",
"`  c #7D709E",
"'  c #3FB0E6",
"]  c #43BBF4",
"[  c #4CBBF6",
"{  c #50BAF5",
"}  c #5BBAF6",
"|  c #55BBF8",
" . c #5ABEFB",
".. c #65BCFB",
"X. c #6EBEFD",
"o. c #74BCFD",
"O. c #7CBDFE",
"+. c #41C0F9",
"@. c #49C5FE",
"#. c #51C7FE",
"$. c #63CAFE",
"%. c #81BDFE",
"&. c #8BBDFE",
"*. c #93BEFE",
"=. c #9CBEFE",
"-. c #BEA8E7",
";. c #A5BEFE",
":. c #ADBFFE",
">. c #B4BEFE",
",. c #B9BEFE",
"<. c #C4BEFE",
"1. c #CDBEFE",
"2. c #87C0FE",
"3. c #89C2FE",
"4. c #A8C1FE",
"5. c #B7C2FE",
"6. c #BCC1FE",
"7. c #C0C0FE",
"8. c #DBC4FE",
"9. c #E4CBFE",
"0. c None",
/* pixels */
"0.0.0.0.0.0.0.0.0.0.0.0.0.0.0.0.0.0.0.0.0.0.0.0.0.0.0.0.0.0.0.0.",
"0.0.0.0.0.0.0.0.0.0.0.0.0.$ $ $ $ # # 0.0.0.0.0.0.0.0.0.0.0.0.0.",
"0.0.0.0.0.0.0.0.0.0.# $ $ $ $ $ $ $ $ $ $ $ 0.0.0.0.0.0.0.0.0.0.",
"0.0.0.0.0.0.0.0.$ $ $ # $ # # # # # # $ # $ $ $ 0.0.0.0.0.0.0.0.",
"0.0.0.0.0.0.0.$ $ # # # # # # # # # # # # # # $ $ 0.0.0.0.0.0.0.",
"0.0.0.0.0.0.$ $ # # # # # # # # # # # # # # # # $ $ 0.0.0.0.0.0.",
"0.0.0.0.0.$ # # # # # # # # # # # # # # + + + # + $ $ 0.0.0.0.0.",
"0.0.0.0.$ $ # # # # # # # # # # # # # O % + @ # # + $ $ 0.0.0.0.",
"0.0.0.# $ # # # # # O X O # # # + + O 3 -.M X # # # # $ + 0.0.0.",
"0.0.0.$ # # # # # O 3 _ - + # # + X   h 8._ X # # # # # $ 0.0.0.",
"0.0.# $ # # @ @ +   ( 9.b X # $ $ 6 O f 1./ X + # # # # $ # 0.0.",
"0.0.# # @ + $ + X   ( 7.v X X X f <.n 5 <./ X # # # # # # # 0.0.",
"0.0.$ $ + @ @ * d o ! <.h O d o j 6.W 5 >.~   @ # + # # # $ 0.0.",
"0.% $ + + $ X Q 6.3 L ,.d z 5.d d :.L 5 ;.~   o O $ # # # $ # 0.",
"0.% $ + @ @ X ^ 5.r K :.d K 4.g r =.K 5 *.Y o l : O # # # $ $ 0.",
"0.$ $ + $ +   Y ;.5 K =.r c *.g r *.U 4 &.U > 2.T o + # # $ % 0.",
"0.$ $ # # # o Y *.0 J *.r x &.i 0 %.H 4 O.P 2 o.E o # # # # $ 0.",
"0.$ $ # # # X U 2.2 H O.r a O.y 9 o.B 4 X.P 2 ..R o # # # $ % 0.",
"0.% $ # # # @ & 9 o I o.e a X.t e ..B 4 ..C , } D o # # $ $ # 0.",
"0.0.$ # # # # O o o A ..e s $.u 8 | N 1 | N , { D o # # # $ 0.0.",
"0.0.$ # # # # # # o A #.u & D % w #.V , [ V < @.F o # # # # 0.0.",
"0.0.# $ # # # # # o s { q o o o = F ; 8 ] Z O F 1 @ # # $ # 0.0.",
"0.0.0.$ # # # # # @ $ , # # # $ @ o . w +.S o o O # # # $ 0.0.0.",
"0.0.0.# $ # # # # # O O # # # # # # O , ' p o # # # # $ # 0.0.0.",
"0.0.0.0.$ $ # # # # # # # # # # # # # @ = # # # # # $ $ 0.0.0.0.",
"0.0.0.0.0.$ # # # # # # # # # # # # # # O @ # # # # $ 0.0.0.0.0.",
"0.0.0.0.0.0.$ $ # # # # # # # # # # # # # # # # # $ 0.0.0.0.0.0.",
"0.0.0.0.0.0.0.$ $ # # # # # # # # # # # # # # $ # 0.0.0.0.0.0.0.",
"0.0.0.0.0.0.0.0.$ $ $ # # # # # # # # # # $ $ $ 0.0.0.0.0.0.0.0.",
"0.0.0.0.0.0.0.0.0.0.$ # $ $ $ $ # $ $ $ $ $ 0.0.0.0.0.0.0.0.0.0.",
"0.0.0.0.0.0.0.0.0.0.0.0.0.$ # $ $ # # 0.0.0.0.0.0.0.0.0.0.0.0.0.",
"0.0.0.0.0.0.0.0.0.0.0.0.0.0.0.0.0.0.0.0.0.0.0.0.0.0.0.0.0.0.0.0."
};
